<?xml version="1.0" encoding="UTF-8"?>
<svg width="171px" height="62px" viewBox="0 0 171 62" version="1.1" xmlns="http://www.w3.org/2000/svg" xmlns:xlink="http://www.w3.org/1999/xlink">
    <title>logo</title>
    <defs>
        <filter id="filter-1">
            <feColorMatrix in="SourceGraphic" type="matrix" values="0 0 0 0 0.003922 0 0 0 0 0.203922 0 0 0 0 0.403922 0 0 0 1.000000 0"></feColorMatrix>
        </filter>
    </defs>
    <g id="Page-1" stroke="none" stroke-width="1" fill="none" fill-rule="evenodd">
        <g id="bank-1" transform="translate(-308.000000, -205.000000)">
            <g id="Group" transform="translate(298.000000, 205.000000)">
                <g id="Group-2" transform="translate(3.000000, 0.000000)">
                    <text id="iDIGITAL" font-family="Avenir-Heavy, Avenir" font-size="24" font-weight="600" line-spacing="40" letter-spacing="0.468" fill="#013467">
                        <tspan x="6.216" y="57">iDIGITAL</tspan>
                    </text>
                    <text id="BANK" font-family="BanglaSangamMN, Bangla Sangam MN" font-size="24" font-weight="normal" line-spacing="40" letter-spacing="0.468" fill="#013467">
                        <tspan x="111.493687" y="53">BANK</tspan>
                    </text>
                    <g filter="url(#filter-1)" id="Group">
                        <g transform="translate(79.000000, 0.000000)">
                            <path d="M12.2827357,0 C11.3343653,0 10.5654715,0.955813111 10.5654715,2.1343716 L10.5654715,3.53277798 L7.07733304,1.13328504 C6.40225647,0.667511771 5.55090829,0.969938428 5.17622185,1.80912713 C4.8009527,2.64831583 5.04481938,3.70662803 5.71989595,4.17276349 L8.37620717,6 L10.6298616,4.46685983 L11.2801727,4.02426657 L14,2.17348787 L14,2.1343716 C14,0.955813111 13.2311061,0 12.2827357,0" id="Fill-1" fill="#FFFFFF"></path>
                            <path d="M22.8586582,9.79831228 L22.8097259,9.77032097 L16.9176422,6.40381553 L13.9400311,8.14242185 L13.8547941,8.1924288 L21.0607897,12.4062218 C21.2438914,12.5402027 21.4285714,13.0210871 21.4285714,13.2465901 L21.4285714,22.465481 C21.4285714,22.6906695 21.2464169,23.1715539 21.0642624,23.3058493 L13.1362781,27.9077465 C13.0895556,27.9278751 12.9389703,27.9803981 12.677577,27.9803981 C12.4155523,27.9803981 12.2532864,27.9278751 12.2071953,27.9077465 L4.1339925,23.3027042 C3.94110442,23.1715539 3.57142857,22.6878389 3.57142857,22.4557312 L3.57142857,13.2566544 C3.57142857,13.0251757 3.9502595,12.5402027 4.14346327,12.4096814 L11.0580748,8.44938274 L11.9328585,7.97667555 L12.318319,7.76815602 L12.7943832,7.51120208 L15.9096362,5.82763485 L15.9547802,5.80310314 L17.3842356,5.03066878 L19.5861903,3.84119535 C20.3236479,3.44837348 20.60272,2.53409551 20.2084201,1.79877323 C19.814436,1.06313643 18.8967181,0.785424893 18.1583134,1.17856127 L16.2909927,2.18750648 L15.6697099,2.52749082 L14.4928085,3.17160546 L12.8313192,4.08116579 L11.5631827,4.77528739 L11.2654847,4.93788859 L9.69081082,5.79995805 L9.25957495,6.03583987 L6.5515652,7.51812128 L3.48934854,9.16929408 L2.35064591,9.79831228 C1.25424606,10.4304756 0,11.9791184 0,13.2409289 L0,22.4705131 C0,23.7323236 1.25014206,25.2815955 2.34654191,25.9131298 L10.5485472,30.5257203 C11.0965893,30.8411729 11.8987637,31 12.6204367,31 C13.3405311,31 14.102297,30.8411729 14.6506547,30.5257203 L22.8428736,25.9131298 C23.9399048,25.2815955 25,23.7323236 25,22.4705131 L25,13.2409289 C25,11.9791184 23.9566365,10.4304756 22.8586582,9.79831228" id="Fill-3" fill="#FFFFFF"></path>
                        </g>
                    </g>
                </g>
            </g>
        </g>
    </g>
</svg>