<?xml version="1.0" encoding="UTF-8"?>
<svg width="171px" height="62px" viewBox="0 0 171 62" version="1.1" xmlns="http://www.w3.org/2000/svg" xmlns:xlink="http://www.w3.org/1999/xlink">
    <title>logo</title>
    <defs>
        <filter id="filter-1">
            <feColorMatrix in="SourceGraphic" type="matrix" values="0 0 0 0 0.003922 0 0 0 0 0.203922 0 0 0 0 0.403922 0 0 0 1.000000 0"></feColorMatrix>
        </filter>
    </defs>
    <g id="Page-1" stroke="none" stroke-width="1" fill="none" fill-rule="evenodd">
        <g id="bank-1" transform="translate(-308.000000, -205.000000)">
            <g id="logo" transform="translate(308.000000, 205.000000)">
                <path d="M2.312,47.296 C2.84,47.296 3.284,47.132 3.644,46.804 C4.004,46.476 4.184,46.064 4.184,45.568 C4.184,45.072 4.004,44.66 3.644,44.332 C3.284,44.004 2.84,43.84 2.312,43.84 C1.784,43.84 1.348,44.012 1.004,44.356 C0.66,44.7 0.488,45.104 0.488,45.568 C0.488,46.032 0.66,46.436 1.004,46.78 C1.348,47.124 1.784,47.296 2.312,47.296 Z M3.776,61 L3.776,49.48 L0.896,49.48 L0.896,61 L3.776,61 Z M14.156,61 C15.18,61 16.224,60.828 17.288,60.484 C18.352,60.14 19.32,59.62 20.192,58.924 C21.064,58.228 21.776,57.348 22.328,56.284 C22.88,55.22 23.156,53.96 23.156,52.504 C23.156,51.064 22.916,49.812 22.436,48.748 C21.956,47.684 21.316,46.8 20.516,46.096 C19.716,45.392 18.796,44.868 17.756,44.524 C16.716,44.18 15.636,44.008 14.516,44.008 L14.516,44.008 L7.82,44.008 L7.82,61 L14.156,61 Z M13.1,58.264 L10.844,58.264 L10.844,46.744 L13.604,46.744 C14.532,46.744 15.384,46.852 16.16,47.068 C16.936,47.284 17.608,47.62 18.176,48.076 C18.744,48.532 19.188,49.128 19.508,49.864 C19.828,50.6 19.988,51.48 19.988,52.504 C19.988,53.544 19.808,54.428 19.448,55.156 C19.088,55.884 18.596,56.476 17.972,56.932 C17.348,57.388 16.616,57.724 15.776,57.94 C14.936,58.156 14.044,58.264 13.1,58.264 L13.1,58.264 Z M29.456,61 L29.456,44.008 L26.432,44.008 L26.432,61 L29.456,61 Z M41.708,61.432 C44.3,61.432 46.644,60.872 48.74,59.752 L48.74,59.752 L48.74,51.064 L42.236,51.064 L42.236,53.8 L45.716,53.8 L45.716,57.808 C45.188,58.112 44.584,58.336 43.904,58.48 C43.224,58.624 42.5,58.696 41.732,58.696 C40.852,58.696 40.056,58.536 39.344,58.216 C38.632,57.896 38.02,57.456 37.508,56.896 C36.996,56.336 36.6,55.672 36.32,54.904 C36.04,54.136 35.9,53.296 35.9,52.384 C35.9,51.536 36.04,50.744 36.32,50.008 C36.6,49.272 36.996,48.628 37.508,48.076 C38.02,47.524 38.632,47.092 39.344,46.78 C40.056,46.468 40.852,46.312 41.732,46.312 C42.596,46.312 43.416,46.456 44.192,46.744 C44.968,47.032 45.628,47.44 46.172,47.968 L46.172,47.968 L48.404,45.712 C47.508,44.912 46.492,44.356 45.356,44.044 C44.22,43.732 43.004,43.576 41.708,43.576 C40.396,43.576 39.192,43.788 38.096,44.212 C37,44.636 36.056,45.24 35.264,46.024 C34.472,46.808 33.852,47.756 33.404,48.868 C32.956,49.98 32.732,51.216 32.732,52.576 C32.732,53.904 32.956,55.112 33.404,56.2 C33.852,57.288 34.472,58.22 35.264,58.996 C36.056,59.772 37,60.372 38.096,60.796 C39.192,61.22 40.396,61.432 41.708,61.432 Z M55.736,61 L55.736,44.008 L52.712,44.008 L52.712,61 L55.736,61 Z M66.428,61 L66.428,46.744 L71.636,46.744 L71.636,44.008 L58.196,44.008 L58.196,46.744 L63.404,46.744 L63.404,61 L66.428,61 Z M73.448,61 L74.984,57.112 L82.352,57.112 L83.936,61 L87.392,61 L80.072,44.008 L77.456,44.008 L70.064,61 L73.448,61 Z M81.296,54.52 L76.016,54.52 L78.68,47.608 L81.296,54.52 Z M100.004,61 L100.004,58.264 L92.78,58.264 L92.78,44.008 L89.756,44.008 L89.756,61 L100.004,61 Z" id="iDIGITAL" fill="#013467" fill-rule="nonzero"></path>
                <path d="M113.950719,61 C114.567906,61 115.159703,60.8789062 115.726109,60.6367188 C116.292516,60.3945312 116.792516,60.0644531 117.226109,59.6464844 C117.659703,59.2285156 118.005406,58.7421875 118.263219,58.1875 C118.521031,57.6328125 118.649937,57.0390625 118.649937,56.40625 C118.649937,55.9609375 118.591344,55.53125 118.474156,55.1171875 C118.356969,54.703125 118.167516,54.3164062 117.905797,53.9570312 C117.644078,53.5976562 117.298375,53.2773438 116.868687,52.9960938 C116.439,52.7148438 115.911656,52.484375 115.286656,52.3046875 C116.114781,51.875 116.749547,51.3242188 117.190953,50.6523438 C117.632359,49.9804688 117.853062,49.2539062 117.853062,48.4726562 C117.853062,47.9492188 117.743687,47.4570312 117.524937,46.9960938 C117.306187,46.5351562 116.993687,46.1308594 116.587437,45.7832031 C116.181187,45.4355469 115.692906,45.1601562 115.122594,44.9570312 C114.552281,44.7539062 113.911656,44.6523438 113.200719,44.6523438 L113.200719,44.6523438 L106.849156,44.6523438 L106.849156,61 L113.950719,61 Z M112.790562,51.53125 L108.583531,51.53125 L108.583531,46.234375 L113.09525,46.234375 C113.618687,46.234375 114.071812,46.2988281 114.454625,46.4277344 C114.837437,46.5566406 115.151891,46.7324219 115.397984,46.9550781 C115.644078,47.1777344 115.825719,47.4394531 115.942906,47.7402344 C116.060094,48.0410156 116.118687,48.3671875 116.118687,48.71875 C116.118687,49.1015625 116.036656,49.4628906 115.872594,49.8027344 C115.708531,50.1425781 115.480016,50.4414062 115.187047,50.6992188 C114.894078,50.9570312 114.544469,51.1601562 114.138219,51.3085938 C113.731969,51.4570312 113.28275,51.53125 112.790562,51.53125 L112.790562,51.53125 Z M113.212437,59.4179688 L108.583531,59.4179688 L108.583531,53.078125 L112.579625,53.078125 C113.259312,53.078125 113.866734,53.1640625 114.401891,53.3359375 C114.937047,53.5078125 115.390172,53.7402344 115.761266,54.0332031 C116.132359,54.3261719 116.417516,54.6699219 116.616734,55.0644531 C116.815953,55.4589844 116.915562,55.875 116.915562,56.3125 C116.915562,56.84375 116.804234,57.3046875 116.581578,57.6953125 C116.358922,58.0859375 116.071812,58.4082031 115.72025,58.6621094 C115.368687,58.9160156 114.972203,59.1054688 114.530797,59.2304688 C114.089391,59.3554688 113.649937,59.4179688 113.212437,59.4179688 L113.212437,59.4179688 Z M123.793719,61 L125.680437,55.796875 L132.629656,55.796875 L134.516375,61 L136.321062,61 L130.379656,44.6523438 L127.989031,44.6523438 L122.00075,61 L123.793719,61 Z M132.149187,54.484375 L126.160906,54.484375 L129.160906,46.2695312 L132.149187,54.484375 Z M142.296875,61 L142.296875,46.8789062 L150.617188,61 L152.9375,61 L152.9375,44.6523438 L151.203125,44.6523438 L151.203125,58.7851562 L142.882812,44.6523438 L140.5625,44.6523438 L140.5625,61 L142.296875,61 Z M159.827375,61 L159.827375,55.234375 L162.7805,52.328125 L168.639875,61 L170.843,61 L163.987531,51.0859375 L170.444562,44.6523438 L168.159406,44.6523438 L159.827375,53.0195312 L159.827375,44.6523438 L158.093,44.6523438 L158.093,61 L159.827375,61 Z" id="BANK" fill="#013467" fill-rule="nonzero"></path>
                <g filter="url(#filter-1)" id="Group">
                    <g transform="translate(72.000000, 0.000000)">
                        <path d="M12.2827357,0 C11.3343653,0 10.5654715,0.955813111 10.5654715,2.1343716 L10.5654715,3.53277798 L7.07733304,1.13328504 C6.40225647,0.667511771 5.55090829,0.969938428 5.17622185,1.80912713 C4.8009527,2.64831583 5.04481938,3.70662803 5.71989595,4.17276349 L8.37620717,6 L10.6298616,4.46685983 L11.2801727,4.02426657 L14,2.17348787 L14,2.1343716 C14,0.955813111 13.2311061,0 12.2827357,0" id="Fill-1" fill="#BC7272"></path>
                        <path d="M22.8097259,9.77032097 L16.9176422,6.40381553 L13.9400311,8.14242185 L13.8547941,8.1924288 L21.0607897,12.4062218 C21.2438914,12.5402027 21.4285714,13.0210871 21.4285714,13.2465901 L21.4285714,22.465481 C21.4285714,22.6906695 21.2464169,23.1715539 21.0642624,23.3058493 L13.1362781,27.9077465 C13.0895556,27.9278751 12.9389703,27.9803981 12.677577,27.9803981 C12.4155523,27.9803981 12.2532864,27.9278751 12.2071953,27.9077465 L4.1339925,23.3027042 C3.94110442,23.1715539 3.57142857,22.6878389 3.57142857,22.4557312 L3.57142857,13.2566544 C3.57142857,13.0251757 3.9502595,12.5402027 4.14346327,12.4096814 L11.0580748,8.44938274 L11.9328585,7.97667555 L12.318319,7.76815602 L12.7943832,7.51120208 L15.9096362,5.82763485 L15.9547802,5.80310314 L17.3842356,5.03066878 L19.5861903,3.84119535 C20.3236479,3.44837348 20.60272,2.53409551 20.2084201,1.79877323 C19.814436,1.06313643 18.8967181,0.785424893 18.1583134,1.17856127 L16.2909927,2.18750648 L15.6697099,2.52749082 L14.4928085,3.17160546 L12.8313192,4.08116579 L11.5631827,4.77528739 L11.2654847,4.93788859 L9.69081082,5.79995805 L9.25957495,6.03583987 L6.5515652,7.51812128 L3.48934854,9.16929408 L2.35064591,9.79831228 C1.25424606,10.4304756 0,11.9791184 0,13.2409289 L0,22.4705131 C0,23.7323236 1.25014206,25.2815955 2.34654191,25.9131298 L10.5485472,30.5257203 C11.0965893,30.8411729 11.8987637,31 12.6204367,31 C13.3405311,31 14.102297,30.8411729 14.6506547,30.5257203 L22.8428736,25.9131298 C23.9399048,25.2815955 25,23.7323236 25,22.4705131 L25,13.2409289 C25,11.9791184 23.9566365,10.4304756 22.8586582,9.79831228 L22.8097259,9.77032097 Z" id="Fill-3" fill="#FFFFFF"></path>
                    </g>
                </g>
            </g>
        </g>
    </g>
</svg>